<svg xmlns="http://www.w3.org/2000/svg" viewBox="0 0 200 140">
  <!-- 구름 배경 -->
  <path d="M160 95 
           C175 95 185 85 185 70 
           C185 55 175 45 160 45 
           C160 25 145 15 125 15 
           C110 15 97 22 90 35 
           C85 32 78 30 70 30 
           C50 30 35 45 35 65 
           C35 67 35 69 35.5 71 
           C22 74 15 85 15 95 
           C15 108 25 118 40 118 
           L160 118 
           C175 118 185 108 185 95 
           C185 95 185 95 160 95 Z" 
        fill="#e8f4fc" 
        stroke="#b8dff5" 
        stroke-width="3"/>
  
  <!-- K-ECP 텍스트 -->
  <text x="100" y="85" 
        font-family="Arial, Helvetica, sans-serif" 
        font-size="36" 
        font-weight="bold" 
        fill="#c41e3a" 
        text-anchor="middle">
    K<tspan font-size="24" dy="-2">·</tspan><tspan dy="2">ECP</tspan>
  </text>
  
  <!-- 오른쪽 위 별/십자가 장식 -->
  <g transform="translate(165, 25)">
    <!-- 세로선 -->
    <line x1="0" y1="-12" x2="0" y2="12" stroke="#d4a534" stroke-width="3" stroke-linecap="round"/>
    <!-- 가로선 -->
    <line x1="-12" y1="0" x2="12" y2="0" stroke="#d4a534" stroke-width="3" stroke-linecap="round"/>
    <!-- 대각선 (작은) -->
    <line x1="-6" y1="-6" x2="6" y2="6" stroke="#d4a534" stroke-width="2" stroke-linecap="round" opacity="0.7"/>
    <line x1="6" y1="-6" x2="-6" y2="6" stroke="#d4a534" stroke-width="2" stroke-linecap="round" opacity="0.7"/>
  </g>
</svg>
